<?xml version="1.0" encoding="UTF-8" standalone="no"?>
<svg
   width="1100"
   height="820"
   viewBox="0 0 1100 820"
   version="1.1"
   id="svg19"
   sodipodi:docname="flowchart_v4.svg"
   inkscape:version="1.4.2 (ebf0e940, 2025-05-08)"
   inkscape:export-filename="flowchart_v4.pdf"
   inkscape:export-xdpi="96"
   inkscape:export-ydpi="96"
   xml:space="preserve"
   xmlns:inkscape="http://www.inkscape.org/namespaces/inkscape"
   xmlns:sodipodi="http://sodipodi.sourceforge.net/DTD/sodipodi-0.dtd"
   xmlns:xlink="http://www.w3.org/1999/xlink"
   xmlns="http://www.w3.org/2000/svg"
   xmlns:svg="http://www.w3.org/2000/svg"><sodipodi:namedview
     id="base"
     pagecolor="#ffffff"
     bordercolor="#666"
     borderopacity="1"
     inkscape:document-units="pt"
     showgrid="true"
     inkscape:zoom="0.67665787"
     inkscape:cx="645.08228"
     inkscape:cy="315.52134"
     inkscape:showpageshadow="2"
     inkscape:pageopacity="0.0"
     inkscape:pagecheckerboard="0"
     inkscape:deskcolor="#d1d1d1"
     inkscape:window-width="1520"
     inkscape:window-height="876"
     inkscape:window-x="491"
     inkscape:window-y="100"
     inkscape:window-maximized="0"
     inkscape:current-layer="layer1"><inkscape:grid
       type="xygrid"
       id="grid"
       units="pt"
       spacingx="12"
       spacingy="12"
       originx="0"
       originy="0" /></sodipodi:namedview><defs
     id="defs1"><inkscape:path-effect
       effect="offset"
       id="path-effect6"
       is_visible="true"
       lpeversion="1.3"
       linejoin_type="miter"
       unit="mm"
       offset="1.060087"
       miter_limit="4"
       attempt_force_join="false"
       update_on_knot_move="true" /><inkscape:path-effect
       effect="offset"
       id="path-effect5"
       is_visible="true"
       lpeversion="1.3"
       linejoin_type="miter"
       unit="mm"
       offset="1.06429"
       miter_limit="4"
       attempt_force_join="false"
       update_on_knot_move="true" /><inkscape:path-effect
       effect="offset"
       id="path-effect4"
       is_visible="true"
       lpeversion="1.3"
       linejoin_type="miter"
       unit="mm"
       offset="0.968225"
       miter_limit="4"
       attempt_force_join="false"
       update_on_knot_move="true" /><inkscape:path-effect
       effect="offset"
       id="path-effect3"
       is_visible="true"
       lpeversion="1.3"
       linejoin_type="miter"
       unit="mm"
       offset="0.96"
       miter_limit="4"
       attempt_force_join="false"
       update_on_knot_move="true" /><inkscape:path-effect
       effect="offset"
       id="path-effect2"
       is_visible="true"
       lpeversion="1.3"
       linejoin_type="round"
       unit="mm"
       offset="1.068547"
       miter_limit="4"
       attempt_force_join="false"
       update_on_knot_move="true" /><linearGradient
       id="swatch2"
       inkscape:swatch="solid"><stop
         style="stop-color:#1a1a1a;stop-opacity:1;"
         offset="0"
         id="stop2" /></linearGradient><marker
       style="overflow:visible"
       id="marker22"
       refX="0"
       refY="0"
       orient="auto-start-reverse"
       inkscape:stockid="Rounded arrow"
       markerWidth="1"
       markerHeight="1"
       viewBox="0 0 1 1"
       inkscape:isstock="true"
       inkscape:collect="always"
       preserveAspectRatio="xMidYMid"><path
         transform="scale(0.7)"
         d="m -0.21114562,-4.1055728 6.42229122,3.21114561 a 1,1 90 0 1 0,1.78885438 L -0.21114562,4.1055728 A 1.236068,1.236068 31.717474 0 1 -2,3 v -6 a 1.236068,1.236068 148.28253 0 1 1.78885438,-1.1055728 z"
         style="fill:context-stroke;fill-rule:evenodd;stroke:none"
         id="path22" /></marker><color-profile
       name="ACES-CG-Linear-Academy-Color-Encoding-System-AP1"
       xlink:href="file:///System/Library/ColorSync/Profiles/ACESCG%20Linear.icc"
       id="color-profile3" /><color-profile
       name="SMPTE-RP-431-2-2007-DCI-P3"
       xlink:href="file:///System/Library/ColorSync/Profiles/DCI(P3)%20RGB.icc"
       id="color-profile4" /><marker
       style="overflow:visible"
       id="RoundedArrow"
       refX="0"
       refY="0"
       orient="auto-start-reverse"
       inkscape:stockid="Rounded arrow"
       markerWidth="1"
       markerHeight="1"
       viewBox="0 0 1 1"
       inkscape:isstock="true"
       inkscape:collect="always"
       preserveAspectRatio="xMidYMid"><path
         transform="scale(0.7)"
         d="m -0.21114562,-4.1055728 6.42229122,3.21114561 a 1,1 90 0 1 0,1.78885438 L -0.21114562,4.1055728 A 1.236068,1.236068 31.717474 0 1 -2,3 v -6 a 1.236068,1.236068 148.28253 0 1 1.78885438,-1.1055728 z"
         style="fill:context-stroke;fill-rule:evenodd;stroke:none"
         id="path8" /></marker><marker
       style="overflow:visible"
       id="marker64"
       refX="0"
       refY="0"
       orient="auto-start-reverse"
       inkscape:stockid="Triangle arrow"
       markerWidth="1"
       markerHeight="1"
       viewBox="0 0 1 1"
       inkscape:isstock="true"
       inkscape:collect="always"
       preserveAspectRatio="xMidYMid"><path
         transform="scale(0.5)"
         style="fill:context-stroke;fill-rule:evenodd;stroke:context-stroke;stroke-width:1pt"
         d="M 5.77,0 -2.88,5 V -5 Z"
         id="path64" /></marker><linearGradient
       id="swatch57"
       inkscape:swatch="solid"><stop
         style="stop-color:#f70b0b;stop-opacity:1;"
         offset="0"
         id="stop57" /></linearGradient><!-- Palette + styles (tweak colors here) --><style
       type="text/css"
       id="style1"><![CDATA[
      :root {
        --ink: #1f2937;        /* dark gray stroke/text */
        --ink-muted: #6b7280;  /* small labels */
        --blue: #e6f0ff;       /* memory block */
        --purple: #efe6ff;     /* SWAP+AA */
        --teal: #e6fffa;       /* measure */
        --yellow: #fff7e6;     /* decision */
        --green: #eaffea;      /* start */
        --red: #ffeaea;        /* delete */
      }
      .stroke    { stroke: var(--ink); stroke-width: 1.6; }
      .block     { fill: var(--blue);   stroke: var(--ink); stroke-width: 1.6; }
      .swap      { fill: var(--purple); stroke: var(--ink); stroke-width: 1.6; }
      .measure   { fill: var(--teal);   stroke: var(--ink); stroke-width: 1.6; }
      .decision  { fill: var(--yellow); stroke: var(--ink); stroke-width: 1.6; }
      .start     { fill: var(--green);  stroke: var(--ink); stroke-width: 1.6; }
      .end       { fill: var(--red);    stroke: var(--ink); stroke-width: 1.6; }
      .label     { font-family: "Latin Modern Roman","Times New Roman",serif; font-size: 20px; fill: var(--ink); }
      .small     { font-size: 16px; fill: var(--ink-muted); }
      .arrow     { stroke: var(--ink); stroke-width: 1.8; fill: none; marker-end: url(#arrow); }
      .arrow-back{ stroke: var(--ink); stroke-width: 1.8; fill: none; marker-end: url(#arrow); }
    ]]></style><!-- Arrowhead --><marker
       id="arrow"
       markerWidth="10"
       markerHeight="10"
       refX="10"
       refY="5"
       orient="auto-start-reverse"
       viewBox="0 0 10 10"
       preserveAspectRatio="xMidYMid"><path
         d="M 0,0 10,5 0,10 Z"
         fill="#1f2937"
         id="path1" /></marker><marker
       id="arrow-9"
       markerWidth="8"
       markerHeight="8"
       refX="8"
       refY="4"
       orient="auto-start-reverse"><path
         d="M 0,0 8,4 0,8 Z"
         fill="#222222"
         id="path1-0" /></marker><marker
       id="arrow-5"
       markerWidth="8"
       markerHeight="8"
       refX="8"
       refY="4"
       orient="auto-start-reverse"><path
         d="M 0,0 8,4 0,8 Z"
         fill="#222222"
         id="path1-6" /></marker><marker
       id="arrow-5-3"
       markerWidth="8"
       markerHeight="8"
       refX="8"
       refY="4"
       orient="auto-start-reverse"><path
         d="M 0,0 8,4 0,8 Z"
         fill="#222222"
         id="path1-6-0" /></marker><marker
       id="arrow-5-3-3"
       markerWidth="8"
       markerHeight="8"
       refX="8"
       refY="4"
       orient="auto-start-reverse"><path
         d="M 0,0 8,4 0,8 Z"
         fill="#222222"
         id="path1-6-0-9" /></marker><marker
       id="arrow-5-3-3-4"
       markerWidth="8"
       markerHeight="8"
       refX="8"
       refY="4"
       orient="auto-start-reverse"><path
         d="M 0,0 8,4 0,8 Z"
         fill="#222222"
         id="path1-6-0-9-4" /></marker><marker
       id="arrow-55"
       markerWidth="8"
       markerHeight="8"
       refX="8"
       refY="4"
       orient="auto-start-reverse"><path
         d="M 0,0 8,4 0,8 Z"
         fill="#222222"
         id="path1-63" /></marker><marker
       id="arrow-55-6"
       markerWidth="8"
       markerHeight="8"
       refX="8"
       refY="4"
       orient="auto-start-reverse"><path
         d="M 0,0 8,4 0,8 Z"
         fill="#222222"
         id="path1-63-8" /></marker><marker
       id="arrow-55-1"
       markerWidth="8"
       markerHeight="8"
       refX="8"
       refY="4"
       orient="auto-start-reverse"><path
         d="M 0,0 8,4 0,8 Z"
         fill="#222222"
         id="path1-63-1" /></marker><marker
       id="arrow-5-4"
       markerWidth="8"
       markerHeight="8"
       refX="8"
       refY="4"
       orient="auto-start-reverse"><path
         d="M 0,0 8,4 0,8 Z"
         fill="#222222"
         id="path1-6-7" /></marker><marker
       id="arrow-55-18"
       markerWidth="8"
       markerHeight="8"
       refX="8"
       refY="4"
       orient="auto-start-reverse"
       viewBox="0 0 8 8"
       preserveAspectRatio="xMidYMid"><path
         d="M 0,0 8,4 0,8 Z"
         fill="#222222"
         id="path1-63-5" /></marker><marker
       id="arrow-5-4-3"
       markerWidth="8"
       markerHeight="8"
       refX="8"
       refY="4"
       orient="auto-start-reverse"><path
         d="M 0,0 8,4 0,8 Z"
         fill="#222222"
         id="path1-6-7-3" /></marker><inkscape:path-effect
       effect="offset"
       id="path-effect3-3"
       is_visible="true"
       lpeversion="1.3"
       linejoin_type="miter"
       unit="mm"
       offset="0.7371506"
       miter_limit="4"
       attempt_force_join="false"
       update_on_knot_move="true" /><clipPath
       clipPathUnits="userSpaceOnUse"
       id="clipPath1"><path
         d="M 0,0 H 612 V 792 H 0 Z"
         transform="matrix(0,0.0029533,0.00126263,0,0,-0.40371053)"
         id="path1-07" /></clipPath><path
       d="m 3.10834,-5.21245 c -1.53026,0.37061 -2.630133,1.96064 -2.630133,3.3594 0,1.279202 0.860773,1.996512 1.817183,1.996512 1.41071,0 2.36713,-1.936742 2.36713,-3.526772 0,-1.07597 -0.50212,-1.7335 -0.801,-2.12802 -0.44234,-0.5619 -1.15965,-1.48244 -1.15965,-2.05629 0,-0.20324 0.15542,-0.56189 0.68144,-0.56189 0.37061,0 0.59776,0.1315 0.95642,0.33474 0.10759,0.07173 0.38256,0.22715 0.53798,0.22715 0.25106,0 0.43038,-0.25106 0.43038,-0.44234 0,-0.22715 -0.17932,-0.26302 -0.59775,-0.35866 -0.5619,-0.11955 -0.72927,-0.11955 -0.93251,-0.11955 -0.20324,0 -1.37484,0 -1.37484,1.21943 0,0.5858 0.29888,1.26725 0.70535,2.05629 z m 0.13151,0.22714 c 0.4543,0.94446 0.63362,1.30312 0.63362,2.0802 0,0.93251 -0.50211,2.8094687 -1.56612,2.8094687 -0.46625,0 -1.13574,-0.3108347 -1.13574,-1.4226687 0,-0.77708 0.44234,-3.03661 2.06824,-3.467 z"
       id="g1-14" /><path
       d="M 0.37061,2.06824 C 0.358655,2.12802 0.334745,2.19975 0.334745,2.27148 c 0,0.17933 0.143462,0.29888 0.322789,0.29888 0.179327,0 0.346696,-0.11955 0.418436,-0.28692 0.04782,-0.1076 0.38256,-1.54222 0.76513,-3.012705 0.2391,0.597758 0.68144,0.848817 1.14769,0.848817 1.35094,0 2.8812,-1.673722 2.8812,-3.478952 0,-1.27921 -0.77709,-1.91283 -1.60199,-1.91283 -1.05206,0 -2.33126,1.08792 -2.72578,2.67796 z m 2.60623,-2.187792 c -0.81295,0 -1.01619,-0.944458 -1.01619,-1.087918 0,-0.07173 0.29888,-1.20747 0.33474,-1.3868 0.60972,-2.37908 1.78132,-2.43886 1.96065,-2.43886 0.53798,0 0.83686,0.49017 0.83686,1.19552 0,0.60971 -0.32279,1.79328 -0.52603,2.29539 -0.35865,0.82491 -0.98032,1.422668 -1.59003,1.422668 z"
       id="g1-26" /><path
       d="m 2.65405,1.99253 c 0.06376,0 0.1594,0 0.1594,-0.09564 0,-0.03188 -0.00797,-0.03985 -0.11158,-0.14347 -1.09191,-1.02814 -1.36289,-2.510581 -1.36289,-3.74595 0,-2.29539 0.94844,-3.37136 1.35492,-3.73798 0.11158,-0.10361 0.11955,-0.11158 0.11955,-0.15143 0,-0.03985 -0.03188,-0.09564 -0.11158,-0.09564 -0.12752,0 -0.52603,0.40647 -0.58979,0.4782 -1.068,1.11582 -1.291158,2.55044 -1.291158,3.50685 0,1.785307 0.749188,3.21993 1.833128,3.98506 z"
       id="g2-40" /><path
       d="m 2.46276,-1.99253 c 0,-0.75716 -0.12752,-1.66575 -0.62166,-2.60622 C 1.45056,-5.332 0.72528,-5.97758 0.581818,-5.97758 c -0.079701,0 -0.103611,0.05579 -0.103611,0.09564 0,0.03188 0,0.04782 0.095641,0.14346 1.115812,1.06002 1.370862,2.51855 1.370862,3.74595 0,2.287424 -0.948446,3.37136 -1.354922,3.73798 -0.103611,0.10362 -0.111581,0.11159 -0.111581,0.15144 0,0.03985 0.02391,0.09564 0.103611,0.09564 0.127522,0 0.526032,-0.40648 0.589792,-0.47821 1.06799,-1.115814 1.29115,-2.55043 1.29115,-3.50685 z"
       id="g2-41" /><path
       d="m 3.89738,-2.54247 c 0,-0.8528 -0.08767,-1.37086 -0.35068,-1.88094 -0.35069,-0.70137 -0.99626,-0.87671 -1.43462,-0.87671 -1.00423,0 -1.37086,0.74919 -1.482441,0.97235 -0.286924,0.58182 -0.302864,1.37086 -0.302864,1.7853 0,0.52603 0.02391,1.33101 0.406475,1.968622 0.36663,0.5897882 0.95641,0.74122 1.37883,0.74122 0.38257,0 1.06799,-0.1195513 1.4665,-0.908592 0.29489,-0.57385 0.3188,-1.28319 0.3188,-1.80125 z m -1.7853,2.4866792 c -0.27098,0 -0.82092,-0.1275222 -0.98829,-0.9643792 -0.08768,-0.4543 -0.08768,-1.20349 -0.08768,-1.61794 0,-0.54993 0,-1.10784 0.08768,-1.5462 0.16737,-0.81295 0.78904,-0.89265 0.98829,-0.89265 0.27098,0 0.82092,0.13549 0.98032,0.86077 0.09564,0.43836 0.09564,1.03612 0.09564,1.57808 0,0.47024 0,1.18755 -0.09564,1.63388 -0.16737,0.836858 -0.71731,0.9484392 -0.98032,0.9484392 z"
       id="g2-48" /><path
       d="m 5.82615,-2.65405 c 0.11955,0 0.27896,0 0.27896,-0.18331 0,-0.18331 -0.19129,-0.18331 -0.31084,-0.18331 H 0.781071 c -0.119552,0 -0.310834,0 -0.310834,0.18331 0,0.18331 0.159402,0.18331 0.278954,0.18331 z m -0.03188,1.689666 c 0.11955,0 0.31084,0 0.31084,-0.183316 0,-0.183316 -0.15941,-0.18331 -0.27896,-0.18331 H 0.749191 c -0.119552,0 -0.278954,0 -0.278954,0.18331 0,0.18331 0.191282,0.183316 0.310834,0.183316 z"
       id="g2-61" /><path
       d="m 2.37509,-4.97335 c 0,-0.17534 -0.12752,-0.30286 -0.31083,-0.30286 -0.20722,0 -0.43836,0.19128 -0.43836,0.43038 0,0.17534 0.12752,0.30287 0.31084,0.30287 0.20722,0 0.43835,-0.19129 0.43835,-0.43039 z M 1.21146,-2.04832 0.781071,-0.948443 C 0.74122,-0.828892 0.70137,-0.73325 0.70137,-0.597758 c 0,0.390535 0.30286,0.6774591 0.72528,0.6774591 0.7731,0 1.09988,-1.1158111 1.09988,-1.2194311 0,-0.0797 -0.06377,-0.10361 -0.11956,-0.10361 -0.09564,0 -0.11158,0.05579 -0.13549,0.13549 -0.18331,0.637613 -0.51009,0.964388 -0.82889,0.964388 -0.09564,0 -0.19128,-0.039851 -0.19128,-0.255044 0,-0.191282 0.05579,-0.334744 0.1594,-0.581818 0.0797,-0.215196 0.1594,-0.430386 0.24707,-0.645576 l 0.24708,-0.64558 c 0.07173,-0.18331 0.16737,-0.43039 0.16737,-0.56588 0,-0.39851 -0.31881,-0.67746 -0.72528,-0.67746 -0.773102,0 -1.107847,1.11582 -1.107847,1.21943 0,0.07173 0.055791,0.10361 0.119552,0.10361 0.103612,0 0.111582,-0.04782 0.135492,-0.12752 0.223163,-0.75716 0.589793,-0.97236 0.828893,-0.97236 0.11158,0 0.19128,0.03985 0.19128,0.26302 0,0.0797 -0.00797,0.19128 -0.08767,0.43038 z"
       id="g0-105" /><path
       d="m 3.88543,2.90511 c 0,-0.03587 0,-0.05978 -0.20324,-0.26302 -1.19552,-1.20747 -1.865,-3.180073 -1.865,-5.61893 0,-2.3193 0.56189,-4.31581 1.94869,-5.72652 0.11955,-0.1076 0.11955,-0.13151 0.11955,-0.16737 0,-0.07174 -0.05978,-0.09565 -0.1076,-0.09565 -0.15541,0 -1.13574,0.86078 -1.72154,2.03238 -0.60971,1.20747 -0.88468,2.48668 -0.88468,3.95716 0,1.06401 0.16737,2.486678 0.78904,3.765881 C 2.666,2.22366 3.64633,3.00075 3.77783,3.00075 c 0.04782,0 0.1076,-0.02391 0.1076,-0.09564 z"
       id="g3-40" /><path
       d="m 3.37136,-2.97684 c 0,-0.90859 -0.11955,-2.39103 -0.78904,-3.77783 -0.70536,-1.43462 -1.685682,-2.21171 -1.817189,-2.21171 -0.047821,0 -0.107597,0.02391 -0.107597,0.09565 0,0.03586 0,0.05977 0.203238,0.26301 1.195518,1.20747 1.865008,3.18007 1.865008,5.61893 0,2.319301 -0.56189,4.31581 -1.948694,5.72652 -0.119552,0.1076 -0.119552,0.13151 -0.119552,0.16738 0,0.07173 0.059776,0.09564 0.107597,0.09564 0.155417,0 1.135739,-0.86077 1.721539,-2.032381 0.60972,-1.219428 0.88469,-2.510589 0.88469,-3.945209 z"
       id="g3-41" /><path
       d="m 3.38331,-1.70959 c 0,-0.05977 -0.04782,-0.1076 -0.11955,-0.1076 -0.1076,0 -0.11955,0.03587 -0.17933,0.23911 -0.31083,1.087918 -0.80099,1.458528 -1.19551,1.458528 -0.14347,0 -0.31084,-0.035865 -0.31084,-0.39452 0,-0.32279 0.14346,-0.681448 0.27497,-1.040098 l 0.83686,-2.22366 c 0.03587,-0.09564 0.11955,-0.31084 0.11955,-0.53799 0,-0.50211 -0.35865,-0.95641 -0.94445,-0.95641 -1.099879,0 -1.54222,1.7335 -1.54222,1.82914 0,0.04782 0.04782,0.1076 0.131506,0.1076 0.107597,0 0.119552,-0.04782 0.167373,-0.21519 0.286924,-1.00424 0.741221,-1.48245 1.207471,-1.48245 0.1076,0 0.31084,0.01196 0.31084,0.39452 0,0.31084 -0.15542,0.70536 -0.25106,0.96837 l -0.83687,2.22366 c -0.071726,0.19129 -0.143457,0.38257 -0.143457,0.597763 0,0.537983 0.370607,0.968369 0.944457,0.968369 1.09988,0 1.53026,-1.745452 1.53026,-1.829142 z M 3.28767,-7.46002 c 0,-0.17933 -0.14346,-0.39453 -0.40647,-0.39453 -0.27497,0 -0.58581,0.26302 -0.58581,0.57385 0,0.29888 0.25106,0.39452 0.39452,0.39452 0.32279,0 0.59776,-0.31083 0.59776,-0.57384 z"
       id="g0-105-6" /><path
       d="m 1.09988,-2.03238 c -0.75318,0.74122 -0.944463,0.92055 -0.944463,0.96837 0,0.04782 0.047821,0.131507 0.131507,0.131507 0.059776,0 0.741216,-0.657537 0.836866,-0.765127 0.07173,0.800992 0.37061,1.841092 1.30311,1.841092 0.47821,0 0.90859,-0.298879 1.09987,-0.442341 0.15542,-0.119552 0.72927,-0.609714 0.72927,-0.717311 0,-0.05978 -0.05978,-0.13151 -0.11955,-0.13151 -0.04782,0 -0.22715,0.179331 -0.27497,0.227152 -0.41843,0.406476 -0.94446,0.8249067 -1.42267,0.8249067 -0.64557,0 -0.72926,-0.9324987 -0.72926,-1.5780787 0,-0.11956 0,-0.62167 0.08369,-0.71731 0.70535,-0.72927 2.91706,-3.01271 2.91706,-5.12877 0,-0.47821 -0.17933,-0.89664 -0.6934,-0.89664 -1.11183,0 -2.0802,2.46277 -2.24758,2.91706 -0.04782,0.11955 -0.74122,1.96065 -0.66948,3.467 z M 1.81719,-2.7736 c 0.01195,-0.07173 0.54993,-3.20398 1.55417,-4.87771 0.20324,-0.32279 0.40647,-0.52602 0.64558,-0.52602 0.40647,0 0.43038,0.38256 0.43038,0.64557 0,0.41843 -0.11955,1.4944 -1.15965,3.00075 -0.31083,0.44234 -0.78904,1.0401 -1.47048,1.75741 z"
       id="g0-96" /><path
       d="m 3.10834,-5.21245 c -1.53026,0.37061 -2.630133,1.96064 -2.630133,3.3594 0,1.279202 0.860773,1.996512 1.817183,1.996512 1.41071,0 2.36713,-1.936742 2.36713,-3.526772 0,-1.07597 -0.50212,-1.7335 -0.801,-2.12802 -0.44234,-0.5619 -1.15965,-1.48244 -1.15965,-2.05629 0,-0.20324 0.15542,-0.56189 0.68144,-0.56189 0.37061,0 0.59776,0.1315 0.95642,0.33474 0.10759,0.07173 0.38256,0.22715 0.53798,0.22715 0.25106,0 0.43038,-0.25106 0.43038,-0.44234 0,-0.22715 -0.17932,-0.26302 -0.59775,-0.35866 -0.5619,-0.11955 -0.72927,-0.11955 -0.93251,-0.11955 -0.20324,0 -1.37484,0 -1.37484,1.21943 0,0.5858 0.29888,1.26725 0.70535,2.05629 z m 0.13151,0.22714 c 0.4543,0.94446 0.63362,1.30312 0.63362,2.0802 0,0.93251 -0.50211,2.8094687 -1.56612,2.8094687 -0.46625,0 -1.13574,-0.3108347 -1.13574,-1.4226687 0,-0.77708 0.44234,-3.03661 2.06824,-3.467 z"
       id="g1-14-3" /><path
       d="M 0.37061,2.06824 C 0.358655,2.12802 0.334745,2.19975 0.334745,2.27148 c 0,0.17933 0.143462,0.29888 0.322789,0.29888 0.179327,0 0.346696,-0.11955 0.418436,-0.28692 0.04782,-0.1076 0.38256,-1.54222 0.76513,-3.012705 0.2391,0.597758 0.68144,0.848817 1.14769,0.848817 1.35094,0 2.8812,-1.673722 2.8812,-3.478952 0,-1.27921 -0.77709,-1.91283 -1.60199,-1.91283 -1.05206,0 -2.33126,1.08792 -2.72578,2.67796 z m 2.60623,-2.187792 c -0.81295,0 -1.01619,-0.944458 -1.01619,-1.087918 0,-0.07173 0.29888,-1.20747 0.33474,-1.3868 0.60972,-2.37908 1.78132,-2.43886 1.96065,-2.43886 0.53798,0 0.83686,0.49017 0.83686,1.19552 0,0.60971 -0.32279,1.79328 -0.52603,2.29539 -0.35865,0.82491 -0.98032,1.422668 -1.59003,1.422668 z"
       id="g1-26-8" /><path
       d="m 2.65405,1.99253 c 0.06376,0 0.1594,0 0.1594,-0.09564 0,-0.03188 -0.00797,-0.03985 -0.11158,-0.14347 -1.09191,-1.02814 -1.36289,-2.510581 -1.36289,-3.74595 0,-2.29539 0.94844,-3.37136 1.35492,-3.73798 0.11158,-0.10361 0.11955,-0.11158 0.11955,-0.15143 0,-0.03985 -0.03188,-0.09564 -0.11158,-0.09564 -0.12752,0 -0.52603,0.40647 -0.58979,0.4782 -1.068,1.11582 -1.291158,2.55044 -1.291158,3.50685 0,1.785307 0.749188,3.21993 1.833128,3.98506 z"
       id="g2-40-7" /><path
       d="m 2.46276,-1.99253 c 0,-0.75716 -0.12752,-1.66575 -0.62166,-2.60622 C 1.45056,-5.332 0.72528,-5.97758 0.581818,-5.97758 c -0.079701,0 -0.103611,0.05579 -0.103611,0.09564 0,0.03188 0,0.04782 0.095641,0.14346 1.115812,1.06002 1.370862,2.51855 1.370862,3.74595 0,2.287424 -0.948446,3.37136 -1.354922,3.73798 -0.103611,0.10362 -0.111581,0.11159 -0.111581,0.15144 0,0.03985 0.02391,0.09564 0.103611,0.09564 0.127522,0 0.526032,-0.40648 0.589792,-0.47821 1.06799,-1.115814 1.29115,-2.55043 1.29115,-3.50685 z"
       id="g2-41-2" /><path
       d="m 3.89738,-2.54247 c 0,-0.8528 -0.08767,-1.37086 -0.35068,-1.88094 -0.35069,-0.70137 -0.99626,-0.87671 -1.43462,-0.87671 -1.00423,0 -1.37086,0.74919 -1.482441,0.97235 -0.286924,0.58182 -0.302864,1.37086 -0.302864,1.7853 0,0.52603 0.02391,1.33101 0.406475,1.968622 0.36663,0.5897882 0.95641,0.74122 1.37883,0.74122 0.38257,0 1.06799,-0.1195513 1.4665,-0.908592 0.29489,-0.57385 0.3188,-1.28319 0.3188,-1.80125 z m -1.7853,2.4866792 c -0.27098,0 -0.82092,-0.1275222 -0.98829,-0.9643792 -0.08768,-0.4543 -0.08768,-1.20349 -0.08768,-1.61794 0,-0.54993 0,-1.10784 0.08768,-1.5462 0.16737,-0.81295 0.78904,-0.89265 0.98829,-0.89265 0.27098,0 0.82092,0.13549 0.98032,0.86077 0.09564,0.43836 0.09564,1.03612 0.09564,1.57808 0,0.47024 0,1.18755 -0.09564,1.63388 -0.16737,0.836858 -0.71731,0.9484392 -0.98032,0.9484392 z"
       id="g2-48-3" /><path
       d="m 5.82615,-2.65405 c 0.11955,0 0.27896,0 0.27896,-0.18331 0,-0.18331 -0.19129,-0.18331 -0.31084,-0.18331 H 0.781071 c -0.119552,0 -0.310834,0 -0.310834,0.18331 0,0.18331 0.159402,0.18331 0.278954,0.18331 z m -0.03188,1.689666 c 0.11955,0 0.31084,0 0.31084,-0.183316 0,-0.183316 -0.15941,-0.18331 -0.27896,-0.18331 H 0.749191 c -0.119552,0 -0.278954,0 -0.278954,0.18331 0,0.18331 0.191282,0.183316 0.310834,0.183316 z"
       id="g2-61-8" /><path
       d="m 1.3071,-1.58605 c 0.0797,-0.07173 0.1594,-0.15143 0.23113,-0.23114 0.55791,-0.5579 0.9325,-1.06799 1.13176,-1.36288 0.3985,-0.62964 0.62167,-1.28319 0.62167,-1.76937 0,-0.37459 -0.14347,-0.66152 -0.51009,-0.66152 -0.97235,0 -2.024409,2.54247 -2.024409,4.04085 0,0.08767 0,0.10361 0.00797,0.17534 -0.119552,0.11158 -0.430386,0.39054 -0.549938,0.510088 -0.1354919,0.135491 -0.143462,0.143462 -0.143462,0.175342 0,0.047821 0.055791,0.127522 0.119552,0.127522 0.02391,0 0.03985,0 0.159402,-0.103612 l 0.438356,-0.39851 c 0.079701,0.478211 0.302869,1.1795813 0.972349,1.1795813 0.30287,0 0.60573,-0.1514321 0.82093,-0.2948943 0.11955,-0.087671 0.51805,-0.382565 0.51805,-0.470236 0,-0.047821 -0.03985,-0.135492 -0.11955,-0.135492 -0.03985,0 -0.06376,0.02391 -0.12752,0.079701 -0.32677,0.294894 -0.70934,0.597758 -1.07597,0.597758 -0.43038,0 -0.51008,-0.557908 -0.51008,-1.060028 0,-0.05579 0,-0.19925 0.01594,-0.35865 z m 0.03985,-0.38257 c 0.0797,-0.45429 0.35068,-1.60199 0.60573,-2.24757 0.09564,-0.24707 0.45429,-1.17161 0.82889,-1.17161 0.19128,0 0.27098,0.15144 0.27098,0.41445 0,0.09564 0,0.75716 -0.62964,1.71357 -0.42241,0.64558 -1.02814,1.24334 -1.07596,1.29116 z"
       id="g0-96-1" /><path
       d="m 3.88543,2.90511 c 0,-0.03587 0,-0.05978 -0.20324,-0.26302 -1.19552,-1.20747 -1.865,-3.180073 -1.865,-5.61893 0,-2.3193 0.56189,-4.31581 1.94869,-5.72652 0.11955,-0.1076 0.11955,-0.13151 0.11955,-0.16737 0,-0.07174 -0.05978,-0.09565 -0.1076,-0.09565 -0.15541,0 -1.13574,0.86078 -1.72154,2.03238 -0.60971,1.20747 -0.88468,2.48668 -0.88468,3.95716 0,1.06401 0.16737,2.486678 0.78904,3.765881 C 2.666,2.22366 3.64633,3.00075 3.77783,3.00075 c 0.04782,0 0.1076,-0.02391 0.1076,-0.09564 z"
       id="g3-40-1" /><path
       d="m 3.37136,-2.97684 c 0,-0.90859 -0.11955,-2.39103 -0.78904,-3.77783 -0.70536,-1.43462 -1.685682,-2.21171 -1.817189,-2.21171 -0.047821,0 -0.107597,0.02391 -0.107597,0.09565 0,0.03586 0,0.05977 0.203238,0.26301 1.195518,1.20747 1.865008,3.18007 1.865008,5.61893 0,2.319301 -0.56189,4.31581 -1.948694,5.72652 -0.119552,0.1076 -0.119552,0.13151 -0.119552,0.16738 0,0.07173 0.059776,0.09564 0.107597,0.09564 0.155417,0 1.135739,-0.86077 1.721539,-2.032381 0.60972,-1.219428 0.88469,-2.510589 0.88469,-3.945209 z"
       id="g3-41-9" /><path
       d="m 3.59851,-1.42267 c -0.05978,0.20324 -0.05978,0.22715 -0.22715,0.454301 -0.26302,0.334745 -0.78904,0.848817 -1.35094,0.848817 -0.49016,0 -0.76513,-0.442341 -0.76513,-1.147698 0,-0.65753 0.37061,-1.99651 0.59776,-2.49863 0.40648,-0.83686 0.96837,-1.26725 1.43462,-1.26725 0.78904,0 0.94446,0.98033 0.94446,1.07597 0,0.01195 -0.03587,0.16737 -0.04782,0.19128 z m 0.76513,-3.06052 c -0.13151,-0.31083 -0.4543,-0.78904 -1.07597,-0.78904 -1.35093,0 -2.809463,1.74546 -2.809463,3.51482 0,1.183562 0.693403,1.876962 1.506353,1.876962 0.65753,0 1.21943,-0.514073 1.55417,-0.908593 0.11955,0.7053548 0.68144,0.908593 1.0401,0.908593 0.35866,0 0.64558,-0.2151933 0.86077,-0.645579 0.19128,-0.406476 0.35866,-1.135743 0.35866,-1.183563 0,-0.05977 -0.04782,-0.1076 -0.11956,-0.1076 -0.10759,0 -0.11955,0.05978 -0.16737,0.23911 -0.17933,0.705353 -0.40647,1.458528 -0.89664,1.458528 -0.34669,0 -0.37061,-0.310834 -0.37061,-0.549937 0,-0.274969 0.03587,-0.406481 0.14347,-0.872731 0.08368,-0.29888 0.14346,-0.56189 0.2391,-0.90859 0.44234,-1.79327 0.54994,-2.22366 0.54994,-2.29539 0,-0.16737 -0.13151,-0.29888 -0.31084,-0.29888 -0.38256,0 -0.4782,0.41843 -0.50211,0.56189 z"
       id="g0-97" /><path
       d="m 5.35592,-3.82565 c 0,-0.99228 -0.05978,-1.96065 -0.49017,-2.86924 -0.49016,-0.99228 -1.35093,-1.2553 -1.93673,-1.2553 -0.6934,0 -1.54222,0.3467 -1.984562,1.33898 -0.334744,0.75318 -0.454296,1.4944 -0.454296,2.78556 0,1.15965 0.083686,2.03237 0.514068,2.881192 0.46626,0.9085925 1.29116,1.195517 1.91283,1.195517 1.0401,0 1.63786,-0.621669 1.98456,-1.315069 0.43038,-0.89664 0.4543,-2.06824 0.4543,-2.76164 z M 2.91706,0.0119552 c -0.38256,0 -1.15965,-0.2151932 -1.3868,-1.5183052 -0.13151,-0.71731 -0.13151,-1.6259 -0.13151,-2.46277 0,-0.98032 0,-1.865 0.19129,-2.57036 0.20324,-0.80099 0.81295,-1.1716 1.32702,-1.1716 0.4543,0 1.1477,0.27497 1.37485,1.30311 0.15541,0.68144 0.15541,1.6259 0.15541,2.43885 0,0.801 0,1.70959 -0.1315,2.43886 -0.22715,1.315067 -0.98033,1.5422152 -1.39876,1.5422152 z"
       id="g1-48" /><path
       d="m 8.06974,-3.87347 c 0.16737,0 0.38256,0 0.38256,-0.2152 0,-0.22715 -0.20323,-0.22715 -0.38256,-0.22715 h -7.0416 c -0.167368,0 -0.382561,0 -0.382561,0.2152 0,0.22715 0.203238,0.22715 0.382561,0.22715 z m 0,2.22366 c 0.16737,0 0.38256,0 0.38256,-0.2152 0,-0.22714 -0.20323,-0.22714 -0.38256,-0.22714 h -7.0416 c -0.167368,0 -0.382561,0 -0.382561,0.21519 0,0.22715 0.203238,0.22715 0.382561,0.22715 z"
       id="g1-61" /><path
       d="m 3.59851,-1.42267 c -0.05978,0.20324 -0.05978,0.22715 -0.22715,0.454301 -0.26302,0.334745 -0.78904,0.848817 -1.35094,0.848817 -0.49016,0 -0.76513,-0.442341 -0.76513,-1.147698 0,-0.65753 0.37061,-1.99651 0.59776,-2.49863 0.40648,-0.83686 0.96837,-1.26725 1.43462,-1.26725 0.78904,0 0.94446,0.98033 0.94446,1.07597 0,0.01195 -0.03587,0.16737 -0.04782,0.19128 z m 0.76513,-3.06052 c -0.13151,-0.31083 -0.4543,-0.78904 -1.07597,-0.78904 -1.35093,0 -2.809463,1.74546 -2.809463,3.51482 0,1.183562 0.693403,1.876962 1.506353,1.876962 0.65753,0 1.21943,-0.514073 1.55417,-0.908593 0.11955,0.7053548 0.68144,0.908593 1.0401,0.908593 0.35866,0 0.64558,-0.2151933 0.86077,-0.645579 0.19128,-0.406476 0.35866,-1.135743 0.35866,-1.183563 0,-0.05977 -0.04782,-0.1076 -0.11956,-0.1076 -0.10759,0 -0.11955,0.05978 -0.16737,0.23911 -0.17933,0.705353 -0.40647,1.458528 -0.89664,1.458528 -0.34669,0 -0.37061,-0.310834 -0.37061,-0.549937 0,-0.274969 0.03587,-0.406481 0.14347,-0.872731 0.08368,-0.29888 0.14346,-0.56189 0.2391,-0.90859 0.44234,-1.79327 0.54994,-2.22366 0.54994,-2.29539 0,-0.16737 -0.13151,-0.29888 -0.31084,-0.29888 -0.38256,0 -0.4782,0.41843 -0.50211,0.56189 z"
       id="g0-97-2" /><path
       d="m 3.44309,-7.66326 c 0,-0.27497 0,-0.28693 -0.2391,-0.28693 -0.28693,0.32279 -0.88469,0.76513 -2.11607,0.76513 v 0.3467 c 0.27497,0 0.87273,0 1.53026,-0.31083 v 6.228642 c 0,0.430386 -0.03586,0.573848 -1.08792,0.573848 H 1.15965 V 0 c 0.32279,-0.0239103 1.48244,-0.0239103 1.87696,-0.0239103 0.39452,0 1.54222,0 1.86501,0.0239103 V -0.3467 H 4.53101 c -1.05206,0 -1.08792,-0.143462 -1.08792,-0.573848 z"
       id="g1-49" /><path
       d="m 8.06974,-3.87347 c 0.16737,0 0.38256,0 0.38256,-0.2152 0,-0.22715 -0.20323,-0.22715 -0.38256,-0.22715 h -7.0416 c -0.167368,0 -0.382561,0 -0.382561,0.2152 0,0.22715 0.203238,0.22715 0.382561,0.22715 z m 0,2.22366 c 0.16737,0 0.38256,0 0.38256,-0.2152 0,-0.22714 -0.20323,-0.22714 -0.38256,-0.22714 h -7.0416 c -0.167368,0 -0.382561,0 -0.382561,0.21519 0,0.22715 0.203238,0.22715 0.382561,0.22715 z"
       id="g1-61-7" /><clipPath
       clipPathUnits="userSpaceOnUse"
       id="clipPath31"><rect
         style="fill:#000000;fill-opacity:1;stroke:#000000;stroke-width:7.86667;stroke-dasharray:none;stroke-dashoffset:0"
         id="rect32"
         width="144"
         height="107.99999"
         x="1248.2307"
         y="482"
         ry="3.8991821" /></clipPath><clipPath
       clipPathUnits="userSpaceOnUse"
       id="clipPath30"><rect
         style="fill:#000000;fill-opacity:1;stroke:#000000;stroke-width:7.86667;stroke-dasharray:none;stroke-dashoffset:0"
         id="rect31"
         width="144"
         height="107.99999"
         x="1248.2307"
         y="482"
         ry="3.8991821" /></clipPath><clipPath
       clipPathUnits="userSpaceOnUse"
       id="clipPath29"><rect
         style="fill:#000000;fill-opacity:1;stroke:#000000;stroke-width:5.9;stroke-dasharray:none;stroke-dashoffset:0"
         id="rect30"
         width="107.99999"
         height="80.999992"
         x="70.703033"
         y="0.96089995"
         ry="2.9243865" /></clipPath><clipPath
       clipPathUnits="userSpaceOnUse"
       id="clipPath28"><rect
         style="fill:#000000;fill-opacity:1;stroke:#000000;stroke-width:5.9;stroke-dasharray:none;stroke-dashoffset:0"
         id="rect29"
         width="107.99999"
         height="80.999992"
         x="70.703033"
         y="0.96089995"
         ry="2.9243865" /></clipPath><clipPath
       clipPathUnits="userSpaceOnUse"
       id="clipPath27"><rect
         style="fill:#000000;fill-opacity:1;stroke:#000000;stroke-width:5.9;stroke-dasharray:none;stroke-dashoffset:0"
         id="rect28"
         width="107.99999"
         height="80.999992"
         x="70.703033"
         y="0.96089995"
         ry="2.9243865" /></clipPath><path
       d="m 3.26376,-2.78555 c 0.05978,-0.14347 0.05978,-0.16738 0.05978,-0.20324 0,-0.03586 0,-0.05978 -0.05978,-0.20324 L 1.17161,-8.69141 C 1.09988,-8.89465 1.02814,-8.96638 0.896638,-8.96638 c -0.131502,0 -0.239104,0.1076 -0.239104,0.23911 0,0.03586 0,0.05977 0.059776,0.19128 L 2.83337,-2.98879 0.71731,2.5345 C 0.657534,2.666 0.657534,2.68991 0.657534,2.74969 c 0,0.13151 0.107597,0.2391 0.239104,0.2391 0.155412,0 0.203242,-0.11955 0.251062,-0.2391 z"
       id="g0-105-2" /><path
       d="m 1.90087,-8.53599 c 0,-0.21519 0,-0.43039 -0.2391,-0.43039 -0.2391,0 -0.2391,0.2152 -0.2391,0.43039 v 11.0944 c 0,0.21519 0,0.43038 0.2391,0.43038 0.2391,0 0.2391,-0.21519 0.2391,-0.43038 z"
       id="g0-106" /><path
       d="m 3.59851,-1.42267 c -0.05978,0.20324 -0.05978,0.22715 -0.22715,0.454301 -0.26302,0.334745 -0.78904,0.848817 -1.35094,0.848817 -0.49016,0 -0.76513,-0.442341 -0.76513,-1.147698 0,-0.65753 0.37061,-1.99651 0.59776,-2.49863 0.40648,-0.83686 0.96837,-1.26725 1.43462,-1.26725 0.78904,0 0.94446,0.98033 0.94446,1.07597 0,0.01195 -0.03587,0.16737 -0.04782,0.19128 z m 0.76513,-3.06052 c -0.13151,-0.31083 -0.4543,-0.78904 -1.07597,-0.78904 -1.35093,0 -2.809463,1.74546 -2.809463,3.51482 0,1.183562 0.693403,1.876962 1.506353,1.876962 0.65753,0 1.21943,-0.514073 1.55417,-0.908593 0.11955,0.7053548 0.68144,0.908593 1.0401,0.908593 0.35866,0 0.64558,-0.2151933 0.86077,-0.645579 0.19128,-0.406476 0.35866,-1.135743 0.35866,-1.183563 0,-0.05977 -0.04782,-0.1076 -0.11956,-0.1076 -0.10759,0 -0.11955,0.05978 -0.16737,0.23911 -0.17933,0.705353 -0.40647,1.458528 -0.89664,1.458528 -0.34669,0 -0.37061,-0.310834 -0.37061,-0.549937 0,-0.274969 0.03587,-0.406481 0.14347,-0.872731 0.08368,-0.29888 0.14346,-0.56189 0.2391,-0.90859 0.44234,-1.79327 0.54994,-2.22366 0.54994,-2.29539 0,-0.16737 -0.13151,-0.29888 -0.31084,-0.29888 -0.38256,0 -0.4782,0.41843 -0.50211,0.56189 z"
       id="g1-97" /><path
       d="m 3.10834,-5.21245 c -1.53026,0.37061 -2.630133,1.96064 -2.630133,3.3594 0,1.279202 0.860773,1.996512 1.817183,1.996512 1.41071,0 2.36713,-1.936742 2.36713,-3.526772 0,-1.07597 -0.50212,-1.7335 -0.801,-2.12802 -0.44234,-0.5619 -1.15965,-1.48244 -1.15965,-2.05629 0,-0.20324 0.15542,-0.56189 0.68144,-0.56189 0.37061,0 0.59776,0.1315 0.95642,0.33474 0.10759,0.07173 0.38256,0.22715 0.53798,0.22715 0.25106,0 0.43038,-0.25106 0.43038,-0.44234 0,-0.22715 -0.17932,-0.26302 -0.59775,-0.35866 -0.5619,-0.11955 -0.72927,-0.11955 -0.93251,-0.11955 -0.20324,0 -1.37484,0 -1.37484,1.21943 0,0.5858 0.29888,1.26725 0.70535,2.05629 z m 0.13151,0.22714 c 0.4543,0.94446 0.63362,1.30312 0.63362,2.0802 0,0.93251 -0.50211,2.8094687 -1.56612,2.8094687 -0.46625,0 -1.13574,-0.3108347 -1.13574,-1.4226687 0,-0.77708 0.44234,-3.03661 2.06824,-3.467 z"
       id="g1-14-0" /><path
       d="M 0.37061,2.06824 C 0.358655,2.12802 0.334745,2.19975 0.334745,2.27148 c 0,0.17933 0.143462,0.29888 0.322789,0.29888 0.179327,0 0.346696,-0.11955 0.418436,-0.28692 0.04782,-0.1076 0.38256,-1.54222 0.76513,-3.012705 0.2391,0.597758 0.68144,0.848817 1.14769,0.848817 1.35094,0 2.8812,-1.673722 2.8812,-3.478952 0,-1.27921 -0.77709,-1.91283 -1.60199,-1.91283 -1.05206,0 -2.33126,1.08792 -2.72578,2.67796 z m 2.60623,-2.187792 c -0.81295,0 -1.01619,-0.944458 -1.01619,-1.087918 0,-0.07173 0.29888,-1.20747 0.33474,-1.3868 0.60972,-2.37908 1.78132,-2.43886 1.96065,-2.43886 0.53798,0 0.83686,0.49017 0.83686,1.19552 0,0.60971 -0.32279,1.79328 -0.52603,2.29539 -0.35865,0.82491 -0.98032,1.422668 -1.59003,1.422668 z"
       id="g1-26-6" /><path
       d="m 2.65405,1.99253 c 0.06376,0 0.1594,0 0.1594,-0.09564 0,-0.03188 -0.00797,-0.03985 -0.11158,-0.14347 -1.09191,-1.02814 -1.36289,-2.510581 -1.36289,-3.74595 0,-2.29539 0.94844,-3.37136 1.35492,-3.73798 0.11158,-0.10361 0.11955,-0.11158 0.11955,-0.15143 0,-0.03985 -0.03188,-0.09564 -0.11158,-0.09564 -0.12752,0 -0.52603,0.40647 -0.58979,0.4782 -1.068,1.11582 -1.291158,2.55044 -1.291158,3.50685 0,1.785307 0.749188,3.21993 1.833128,3.98506 z"
       id="g2-40-0" /><path
       d="m 2.46276,-1.99253 c 0,-0.75716 -0.12752,-1.66575 -0.62166,-2.60622 C 1.45056,-5.332 0.72528,-5.97758 0.581818,-5.97758 c -0.079701,0 -0.103611,0.05579 -0.103611,0.09564 0,0.03188 0,0.04782 0.095641,0.14346 1.115812,1.06002 1.370862,2.51855 1.370862,3.74595 0,2.287424 -0.948446,3.37136 -1.354922,3.73798 -0.103611,0.10362 -0.111581,0.11159 -0.111581,0.15144 0,0.03985 0.02391,0.09564 0.103611,0.09564 0.127522,0 0.526032,-0.40648 0.589792,-0.47821 1.06799,-1.115814 1.29115,-2.55043 1.29115,-3.50685 z"
       id="g2-41-3" /><path
       d="m 2.50262,-5.07696 c 0,-0.21519 -0.01595,-0.22316 -0.23114,-0.22316 -0.32677,0.3188 -0.74919,0.51008 -1.506349,0.51008 v 0.26302 c 0.215193,0 0.645579,0 1.107849,-0.2152 v 4.088671 c 0,0.294894 -0.02391,0.390535 -0.78107,0.390535 H 0.812951 V 0 C 1.13973,-0.0239103 1.82516,-0.0239103 2.18381,-0.0239103 c 0.35865,0 1.05206,0 1.37883,0.0239103 V -0.263014 H 3.28369 c -0.75716,0 -0.78107,-0.095641 -0.78107,-0.390535 z"
       id="g2-49" /><path
       d="m 5.82615,-2.65405 c 0.11955,0 0.27896,0 0.27896,-0.18331 0,-0.18331 -0.19129,-0.18331 -0.31084,-0.18331 H 0.781071 c -0.119552,0 -0.310834,0 -0.310834,0.18331 0,0.18331 0.159402,0.18331 0.278954,0.18331 z m -0.03188,1.689666 c 0.11955,0 0.31084,0 0.31084,-0.183316 0,-0.183316 -0.15941,-0.18331 -0.27896,-0.18331 H 0.749191 c -0.119552,0 -0.278954,0 -0.278954,0.18331 0,0.18331 0.191282,0.183316 0.310834,0.183316 z"
       id="g2-61-1" /><path
       d="m 1.3071,-1.58605 c 0.0797,-0.07173 0.1594,-0.15143 0.23113,-0.23114 0.55791,-0.5579 0.9325,-1.06799 1.13176,-1.36288 0.3985,-0.62964 0.62167,-1.28319 0.62167,-1.76937 0,-0.37459 -0.14347,-0.66152 -0.51009,-0.66152 -0.97235,0 -2.024409,2.54247 -2.024409,4.04085 0,0.08767 0,0.10361 0.00797,0.17534 -0.119552,0.11158 -0.430386,0.39054 -0.549938,0.510088 -0.1354919,0.135491 -0.143462,0.143462 -0.143462,0.175342 0,0.047821 0.055791,0.127522 0.119552,0.127522 0.02391,0 0.03985,0 0.159402,-0.103612 l 0.438356,-0.39851 c 0.079701,0.478211 0.302869,1.1795813 0.972349,1.1795813 0.30287,0 0.60573,-0.1514321 0.82093,-0.2948943 0.11955,-0.087671 0.51805,-0.382565 0.51805,-0.470236 0,-0.047821 -0.03985,-0.135492 -0.11955,-0.135492 -0.03985,0 -0.06376,0.02391 -0.12752,0.079701 -0.32677,0.294894 -0.70934,0.597758 -1.07597,0.597758 -0.43038,0 -0.51008,-0.557908 -0.51008,-1.060028 0,-0.05579 0,-0.19925 0.01594,-0.35865 z m 0.03985,-0.38257 c 0.0797,-0.45429 0.35068,-1.60199 0.60573,-2.24757 0.09564,-0.24707 0.45429,-1.17161 0.82889,-1.17161 0.19128,0 0.27098,0.15144 0.27098,0.41445 0,0.09564 0,0.75716 -0.62964,1.71357 -0.42241,0.64558 -1.02814,1.24334 -1.07596,1.29116 z"
       id="g0-96-4" /><path
       d="m 3.88543,2.90511 c 0,-0.03587 0,-0.05978 -0.20324,-0.26302 -1.19552,-1.20747 -1.865,-3.180073 -1.865,-5.61893 0,-2.3193 0.56189,-4.31581 1.94869,-5.72652 0.11955,-0.1076 0.11955,-0.13151 0.11955,-0.16737 0,-0.07174 -0.05978,-0.09565 -0.1076,-0.09565 -0.15541,0 -1.13574,0.86078 -1.72154,2.03238 -0.60971,1.20747 -0.88468,2.48668 -0.88468,3.95716 0,1.06401 0.16737,2.486678 0.78904,3.765881 C 2.666,2.22366 3.64633,3.00075 3.77783,3.00075 c 0.04782,0 0.1076,-0.02391 0.1076,-0.09564 z"
       id="g3-40-5" /><path
       d="m 3.37136,-2.97684 c 0,-0.90859 -0.11955,-2.39103 -0.78904,-3.77783 -0.70536,-1.43462 -1.685682,-2.21171 -1.817189,-2.21171 -0.047821,0 -0.107597,0.02391 -0.107597,0.09565 0,0.03586 0,0.05977 0.203238,0.26301 1.195518,1.20747 1.865008,3.18007 1.865008,5.61893 0,2.319301 -0.56189,4.31581 -1.948694,5.72652 -0.119552,0.1076 -0.119552,0.13151 -0.119552,0.16738 0,0.07173 0.059776,0.09564 0.107597,0.09564 0.155417,0 1.135739,-0.86077 1.721539,-2.032381 0.60972,-1.219428 0.88469,-2.510589 0.88469,-3.945209 z"
       id="g3-41-7" /><path
       d="m 3.10834,-5.21245 c -1.53026,0.37061 -2.630133,1.96064 -2.630133,3.3594 0,1.279202 0.860773,1.996512 1.817183,1.996512 1.41071,0 2.36713,-1.936742 2.36713,-3.526772 0,-1.07597 -0.50212,-1.7335 -0.801,-2.12802 -0.44234,-0.5619 -1.15965,-1.48244 -1.15965,-2.05629 0,-0.20324 0.15542,-0.56189 0.68144,-0.56189 0.37061,0 0.59776,0.1315 0.95642,0.33474 0.10759,0.07173 0.38256,0.22715 0.53798,0.22715 0.25106,0 0.43038,-0.25106 0.43038,-0.44234 0,-0.22715 -0.17932,-0.26302 -0.59775,-0.35866 -0.5619,-0.11955 -0.72927,-0.11955 -0.93251,-0.11955 -0.20324,0 -1.37484,0 -1.37484,1.21943 0,0.5858 0.29888,1.26725 0.70535,2.05629 z m 0.13151,0.22714 c 0.4543,0.94446 0.63362,1.30312 0.63362,2.0802 0,0.93251 -0.50211,2.8094687 -1.56612,2.8094687 -0.46625,0 -1.13574,-0.3108347 -1.13574,-1.4226687 0,-0.77708 0.44234,-3.03661 2.06824,-3.467 z"
       id="g1-14-1" /><path
       d="M 0.37061,2.06824 C 0.358655,2.12802 0.334745,2.19975 0.334745,2.27148 c 0,0.17933 0.143462,0.29888 0.322789,0.29888 0.179327,0 0.346696,-0.11955 0.418436,-0.28692 0.04782,-0.1076 0.38256,-1.54222 0.76513,-3.012705 0.2391,0.597758 0.68144,0.848817 1.14769,0.848817 1.35094,0 2.8812,-1.673722 2.8812,-3.478952 0,-1.27921 -0.77709,-1.91283 -1.60199,-1.91283 -1.05206,0 -2.33126,1.08792 -2.72578,2.67796 z m 2.60623,-2.187792 c -0.81295,0 -1.01619,-0.944458 -1.01619,-1.087918 0,-0.07173 0.29888,-1.20747 0.33474,-1.3868 0.60972,-2.37908 1.78132,-2.43886 1.96065,-2.43886 0.53798,0 0.83686,0.49017 0.83686,1.19552 0,0.60971 -0.32279,1.79328 -0.52603,2.29539 -0.35865,0.82491 -0.98032,1.422668 -1.59003,1.422668 z"
       id="g1-26-9" /><path
       d="m 2.65405,1.99253 c 0.06376,0 0.1594,0 0.1594,-0.09564 0,-0.03188 -0.00797,-0.03985 -0.11158,-0.14347 -1.09191,-1.02814 -1.36289,-2.510581 -1.36289,-3.74595 0,-2.29539 0.94844,-3.37136 1.35492,-3.73798 0.11158,-0.10361 0.11955,-0.11158 0.11955,-0.15143 0,-0.03985 -0.03188,-0.09564 -0.11158,-0.09564 -0.12752,0 -0.52603,0.40647 -0.58979,0.4782 -1.068,1.11582 -1.291158,2.55044 -1.291158,3.50685 0,1.785307 0.749188,3.21993 1.833128,3.98506 z"
       id="g2-40-4" /><path
       d="m 2.46276,-1.99253 c 0,-0.75716 -0.12752,-1.66575 -0.62166,-2.60622 C 1.45056,-5.332 0.72528,-5.97758 0.581818,-5.97758 c -0.079701,0 -0.103611,0.05579 -0.103611,0.09564 0,0.03188 0,0.04782 0.095641,0.14346 1.115812,1.06002 1.370862,2.51855 1.370862,3.74595 0,2.287424 -0.948446,3.37136 -1.354922,3.73798 -0.103611,0.10362 -0.111581,0.11159 -0.111581,0.15144 0,0.03985 0.02391,0.09564 0.103611,0.09564 0.127522,0 0.526032,-0.40648 0.589792,-0.47821 1.06799,-1.115814 1.29115,-2.55043 1.29115,-3.50685 z"
       id="g2-41-8" /><path
       d="m 2.24757,-1.6259 c 0.12752,-0.11955 0.46227,-0.38257 0.58979,-0.49415 0.49415,-0.4543 0.96438,-0.89265 0.96438,-1.61793 0,-0.94845 -0.79701,-1.56214 -1.79327,-1.56214 -0.95642,0 -1.586054,0.72528 -1.586054,1.43462 0,0.39053 0.310834,0.44632 0.422416,0.44632 0.167368,0 0.414448,-0.11955 0.414448,-0.42241 0,-0.41445 -0.398508,-0.41445 -0.494149,-0.41445 0.231133,-0.58182 0.765129,-0.78107 1.155669,-0.78107 0.74122,0 1.12378,0.62964 1.12378,1.29913 0,0.82889 -0.58182,1.43462 -1.52229,2.399 L 0.518057,-0.302864 C 0.422416,-0.215193 0.422416,-0.199253 0.422416,0 H 3.57061 L 3.80174,-1.42665 H 3.55467 C 3.53076,-1.26725 3.467,-0.868742 3.37136,-0.71731 3.32354,-0.653549 2.71781,-0.653549 2.59029,-0.653549 H 1.17161 Z"
       id="g2-50" /><path
       d="m 5.82615,-2.65405 c 0.11955,0 0.27896,0 0.27896,-0.18331 0,-0.18331 -0.19129,-0.18331 -0.31084,-0.18331 H 0.781071 c -0.119552,0 -0.310834,0 -0.310834,0.18331 0,0.18331 0.159402,0.18331 0.278954,0.18331 z m -0.03188,1.689666 c 0.11955,0 0.31084,0 0.31084,-0.183316 0,-0.183316 -0.15941,-0.18331 -0.27896,-0.18331 H 0.749191 c -0.119552,0 -0.278954,0 -0.278954,0.18331 0,0.18331 0.191282,0.183316 0.310834,0.183316 z"
       id="g2-61-0" /><path
       d="m 1.3071,-1.58605 c 0.0797,-0.07173 0.1594,-0.15143 0.23113,-0.23114 0.55791,-0.5579 0.9325,-1.06799 1.13176,-1.36288 0.3985,-0.62964 0.62167,-1.28319 0.62167,-1.76937 0,-0.37459 -0.14347,-0.66152 -0.51009,-0.66152 -0.97235,0 -2.024409,2.54247 -2.024409,4.04085 0,0.08767 0,0.10361 0.00797,0.17534 -0.119552,0.11158 -0.430386,0.39054 -0.549938,0.510088 -0.1354919,0.135491 -0.143462,0.143462 -0.143462,0.175342 0,0.047821 0.055791,0.127522 0.119552,0.127522 0.02391,0 0.03985,0 0.159402,-0.103612 l 0.438356,-0.39851 c 0.079701,0.478211 0.302869,1.1795813 0.972349,1.1795813 0.30287,0 0.60573,-0.1514321 0.82093,-0.2948943 0.11955,-0.087671 0.51805,-0.382565 0.51805,-0.470236 0,-0.047821 -0.03985,-0.135492 -0.11955,-0.135492 -0.03985,0 -0.06376,0.02391 -0.12752,0.079701 -0.32677,0.294894 -0.70934,0.597758 -1.07597,0.597758 -0.43038,0 -0.51008,-0.557908 -0.51008,-1.060028 0,-0.05579 0,-0.19925 0.01594,-0.35865 z m 0.03985,-0.38257 c 0.0797,-0.45429 0.35068,-1.60199 0.60573,-2.24757 0.09564,-0.24707 0.45429,-1.17161 0.82889,-1.17161 0.19128,0 0.27098,0.15144 0.27098,0.41445 0,0.09564 0,0.75716 -0.62964,1.71357 -0.42241,0.64558 -1.02814,1.24334 -1.07596,1.29116 z"
       id="g0-96-6" /><path
       d="m 3.88543,2.90511 c 0,-0.03587 0,-0.05978 -0.20324,-0.26302 -1.19552,-1.20747 -1.865,-3.180073 -1.865,-5.61893 0,-2.3193 0.56189,-4.31581 1.94869,-5.72652 0.11955,-0.1076 0.11955,-0.13151 0.11955,-0.16737 0,-0.07174 -0.05978,-0.09565 -0.1076,-0.09565 -0.15541,0 -1.13574,0.86078 -1.72154,2.03238 -0.60971,1.20747 -0.88468,2.48668 -0.88468,3.95716 0,1.06401 0.16737,2.486678 0.78904,3.765881 C 2.666,2.22366 3.64633,3.00075 3.77783,3.00075 c 0.04782,0 0.1076,-0.02391 0.1076,-0.09564 z"
       id="g3-40-9" /><path
       d="m 3.37136,-2.97684 c 0,-0.90859 -0.11955,-2.39103 -0.78904,-3.77783 -0.70536,-1.43462 -1.685682,-2.21171 -1.817189,-2.21171 -0.047821,0 -0.107597,0.02391 -0.107597,0.09565 0,0.03586 0,0.05977 0.203238,0.26301 1.195518,1.20747 1.865008,3.18007 1.865008,5.61893 0,2.319301 -0.56189,4.31581 -1.948694,5.72652 -0.119552,0.1076 -0.119552,0.13151 -0.119552,0.16738 0,0.07173 0.059776,0.09564 0.107597,0.09564 0.155417,0 1.135739,-0.86077 1.721539,-2.032381 0.60972,-1.219428 0.88469,-2.510589 0.88469,-3.945209 z"
       id="g3-41-3" /></defs><!-- LAYER: blocks --><g
     inkscape:groupmode="layer"
     id="layer5"
     inkscape:label="0-background" /><g
     inkscape:groupmode="layer"
     inkscape:label="1-blocks"
     id="layer1"><path
       id="rect5"
       class="block"
       x="423.77911"
       y="167.59776"
       width="231.95299"
       height="176.98325"
       rx="0"
       ry="25.743015"
       style="fill:#1a1a1a"
       inkscape:path-effect="#path-effect6"
       sodipodi:type="rect"
       d="m 449.52148,163.59766 c -16.47284,0 -29.74218,13.26934 -29.74218,29.74218 v 125.49805 c 0,16.47285 13.26934,29.74219 29.74218,29.74219 h 180.4668 c 16.47285,0 29.74414,-13.26898 29.74414,-29.74219 V 193.33984 c 0,-16.47321 -13.27129,-29.74218 -29.74414,-29.74218 z"
       transform="matrix(1.0014411,0,0,1.0014411,-1.0278831,-0.57512975)" /><path
       id="rect4"
       class="block"
       x="718.18109"
       y="486.16757"
       width="231.95299"
       height="176.98325"
       rx="15.463534"
       ry="25.743015"
       style="fill:#1a1a1a;stroke:none;stroke-width:1.9952;stroke-opacity:1"
       inkscape:path-effect="#path-effect5"
       sodipodi:type="rect"
       d="m 733.64453,482.15039 c -11.88238,0 -19.48047,14.55271 -19.48047,29.75977 V 637.4082 c 0,15.20706 7.59809,29.75977 19.48047,29.75977 h 201.02539 c 11.88238,0 19.48242,-14.55235 19.48242,-29.75977 V 511.91016 c 0,-15.20742 -7.60004,-29.75977 -19.48242,-29.75977 z"
       transform="matrix(1.0014411,0,0,1.0014411,-1.0278831,-0.57512975)" /><polygon
       id="polygon3"
       class="decision"
       points="450.02734,360 560,436.98047 669.97266,360 560,283.01953 "
       style="fill:#800080;fill-opacity:1;stroke-width:1.6"
       transform="matrix(1.1202696,0,0,1.4616406,-83.527679,50.993398)"
       inkscape:path-effect="#path-effect4"
       d="M 560,276.03906 440.05469,360 560,443.96094 679.94531,360 Z" /><polygon
       id="polygon2"
       class="decision"
       points="449.91602,360 560,437.05859 670.08398,360 560,282.94141 "
       style="fill:#800080;fill-opacity:1"
       transform="matrix(1.1202696,0,0,1.4616406,204.88737,-277.49081)"
       inkscape:path-effect="#path-effect3"
       d="M 560,276.01953 440.02539,360 560,443.98047 679.97461,360 Z" /><!-- 1) New noisy state --><ellipse
       id="start"
       class="start"
       cx="158.31621"
       cy="251.94467"
       rx="139.96797"
       ry="80.74189"
       style="fill:#b3ff80" /><text
       x="165.57533"
       y="293.95685"
       text-anchor="middle"
       class="label"
       id="text8-9"
       style="font-style:normal;font-variant:normal;font-weight:normal;font-stretch:normal;font-size:29.3333px;font-family:'Latin Modern Roman', 'Times New Roman', serif;-inkscape-font-specification:'Latin Modern Roman, Times New Roman, serif, Normal';font-variant-ligatures:normal;font-variant-caps:normal;font-variant-numeric:normal;font-variant-east-asian:normal;text-anchor:middle;stroke-width:0.717505"
       transform="scale(0.94216936,1.0613803)"><tspan
         sodipodi:role="line"
         id="tspan8-4"
         x="165.57533"
         y="293.95685"
         style="font-style:normal;font-variant:normal;font-weight:normal;font-stretch:normal;font-size:29.3333px;font-family:'Latin Modern Roman', 'Times New Roman', serif;-inkscape-font-specification:'Latin Modern Roman, Times New Roman, serif, Normal';font-variant-ligatures:normal;font-variant-caps:normal;font-variant-numeric:normal;font-variant-east-asian:normal;stroke-width:0.717505">arrives</tspan><tspan
         sodipodi:role="line"
         x="165.57533"
         y="330.62347"
         style="font-style:normal;font-variant:normal;font-weight:normal;font-stretch:normal;font-size:29.3333px;font-family:'Latin Modern Roman', 'Times New Roman', serif;-inkscape-font-specification:'Latin Modern Roman, Times New Roman, serif, Normal';font-variant-ligatures:normal;font-variant-caps:normal;font-variant-numeric:normal;font-variant-east-asian:normal;stroke-width:0.717505"
         id="tspan21" /></text><!-- 2) Place in memory stack --><rect
       id="mem"
       class="block"
       x="423.36194"
       y="167.26416"
       width="232.28726"
       height="177.2383"
       rx="0"
       ry="25.780113"
       style="fill:#ff8080" /><!-- 3) Decision: same index i? --><polygon
       id="decision"
       class="decision"
       points="660,360 560,430 460,360 560,290 "
       style="fill:#60d6b0;fill-opacity:1;stroke-width:1.60047;stroke-dasharray:none"
       transform="matrix(1.1202696,0,0,1.4616406,204.88737,-277.49081)" /><!-- 4) SWAP + A.A. --><!-- 5) Measure ancilla a --><!-- Delete output --><line
       x1="298.28415"
       y1="249.97539"
       x2="404.75067"
       y2="249.97539"
       class="arrow"
       id="line10"
       style="fill:none;stroke:#222222;stroke-width:3.13533;stroke-dasharray:none;marker-end:url(#marker22)" /><line
       x1="655.64923"
       y1="248.53227"
       x2="708"
       y2="248.53227"
       class="arrow"
       id="line10-8"
       style="fill:none;stroke:#222222;stroke-width:3.00629;stroke-dasharray:none;marker-end:url(#arrow-5-3)" /><path
       style="fill:#f70b0b;fill-opacity:1;fill-rule:evenodd;stroke:#f70b0b;stroke-width:2.97038;stroke-linecap:butt;stroke-linejoin:miter;stroke-dasharray:none;stroke-opacity:1;paint-order:normal"
       d="m 832.33175,106.44866 v 29.61918"
       id="path43"
       inkscape:connector-type="polyline"
       inkscape:connector-curvature="0" /><line
       x1="164.27229"
       y1="108.18472"
       x2="164.27229"
       y2="161.31747"
       class="arrow"
       id="line12-1"
       style="fill:#f70b0b;fill-opacity:1;stroke:#f70b0b;stroke-width:3.44667;stroke-dasharray:none;stroke-opacity:1;marker-end:url(#marker64);paint-order:normal" /><path
       style="fill:#f70b0b;fill-opacity:1;fill-rule:evenodd;stroke:#f70b0b;stroke-width:3.47214;stroke-linecap:butt;stroke-linejoin:miter;stroke-dasharray:none;stroke-opacity:1;paint-order:normal"
       d="M 164.27229,108.18473 H 832.33175"
       id="path44"
       inkscape:connector-type="polyline"
       inkscape:connector-curvature="0" /><line
       x1="832.33179"
       y1="356.0733"
       x2="832.33179"
       y2="480"
       class="arrow"
       id="line12-9"
       style="fill:none;stroke:#222222;stroke-width:3.20663;stroke-dasharray:none;marker-end:url(#arrow-55-1)" /><line
       x1="714.23718"
       y1="576"
       x2="660"
       y2="576"
       class="arrow"
       id="line10-4"
       style="fill:none;stroke:#222222;stroke-width:3.02035;stroke-dasharray:none;marker-end:url(#arrow-5-4)" /><line
       x1="544"
       y1="469.92908"
       x2="544"
       y2="362.74075"
       class="arrow"
       id="line12-99"
       style="fill:#000000;stroke:#000000;stroke-width:2.99151;stroke-dasharray:none;marker-end:url(#RoundedArrow)" /><rect
       id="mem-8"
       class="block"
       x="718.18817"
       y="486.29306"
       width="232.28726"
       height="177.2383"
       rx="15.485819"
       ry="25.780113"
       style="fill:#ff8080;stroke:none;stroke-width:1.99808;stroke-opacity:1" /><text
       x="831.24219"
       y="525.06464"
       text-anchor="middle"
       class="label"
       id="text8-1-4"
       style="font-style:normal;font-variant:normal;font-weight:normal;font-stretch:normal;font-size:29.3333px;font-family:'Latin Modern Roman', 'Times New Roman', serif;-inkscape-font-specification:'Latin Modern Roman, Times New Roman, serif, Normal';font-variant-ligatures:normal;font-variant-caps:normal;font-variant-numeric:normal;font-variant-east-asian:normal;text-anchor:middle;stroke-width:0.616495"
       transform="scale(1.0033922,0.99661925)"><tspan
         sodipodi:role="line"
         id="tspan41"
         x="831.24219"
         y="525.06464">SWAP test </tspan><tspan
         sodipodi:role="line"
         id="tspan42"
         x="831.24219"
         y="561.73126">(deterministic)</tspan></text><polygon
       id="decision-8"
       class="decision"
       points="560,290 660,360 560,430 460,360 "
       style="fill:#60d6b0;fill-opacity:1;stroke-width:1.60047;stroke-dasharray:none"
       transform="matrix(1.1202696,0,0,1.4616406,-83.527679,50.993398)" /><text
       x="607.74707"
       y="378.6312"
       class="label"
       id="text27-1-1"
       style="font-style:italic;font-variant:normal;font-weight:normal;font-stretch:normal;font-size:13.3921px;font-family:'Latin Modern Roman', 'Times New Roman', serif;-inkscape-font-specification:'Latin Modern Roman, Times New Roman, serif, Italic';font-variant-ligatures:normal;font-variant-caps:normal;font-variant-numeric:normal;font-variant-east-asian:normal;fill:#000000;stroke-width:0.837003"
       transform="scale(0.92801766,1.0775657)"><tspan
         sodipodi:role="line"
         id="tspan4"
         x="607.74707"
         y="378.6312">(Unit</tspan><tspan
         sodipodi:role="line"
         id="tspan5"
         x="607.74707"
         y="395.37131">success</tspan><tspan
         sodipodi:role="line"
         id="tspan6"
         x="607.74707"
         y="412.11145">probability)</tspan></text><path
       style="fill:#aa0000;fill-opacity:1;stroke:none;stroke-width:0.687786;stroke-dasharray:none;stroke-dashoffset:0;stroke-opacity:1"
       d="m 840.19895,583.57156 -0.3979,32.85688 v 0 z"
       id="path23" /><path
       style="fill:#aa0000;fill-opacity:1;stroke:none;stroke-width:0.687786;stroke-dasharray:none;stroke-dashoffset:0;stroke-opacity:1"
       d="m 839.80105,616.42844 0.3979,-32.85688"
       id="path24" /><path
       style="fill:#aa0000;fill-opacity:1;stroke:none;stroke-width:0.687786;stroke-dasharray:none;stroke-dashoffset:0;stroke-opacity:1"
       d="m 839.80105,616.42844 0.3979,-32.85688 z"
       id="path25" /><path
       style="fill:#aa0000;fill-opacity:1;stroke:none;stroke-width:0.687786;stroke-dasharray:none;stroke-dashoffset:0;stroke-opacity:1"
       d="m 840.19895,583.57156 -0.3979,32.85688"
       id="path26" /><text
       xml:space="preserve"
       style="font-style:normal;font-variant:normal;font-weight:normal;font-stretch:normal;font-size:42.6667px;font-family:'Latin Modern Roman', 'Times New Roman', serif;-inkscape-font-specification:'Latin Modern Roman, Times New Roman, serif, Normal';font-variant-ligatures:normal;font-variant-caps:normal;font-variant-numeric:normal;font-variant-east-asian:normal;text-align:start;writing-mode:lr-tb;direction:ltr;text-anchor:start;fill:#ffffff;stroke:#ffffff;stroke-width:7.86667"
       x="168"
       y="312"
       id="text21"><tspan
         sodipodi:role="line"
         id="tspan9"
         x="168"
         y="312" /></text></g><!-- LAYER: arrows --><g
     inkscape:groupmode="layer"
     inkscape:label="2-arrows"
     id="layer2"><!-- Start -> Memory --><!-- Memory -> Decision --><!-- Decision YES -> SWAP --><!-- SWAP -> Measure --><!-- Measure a=0 -> Memory (loop back) --><!-- Measure a=1 -> Delete --><!-- Decision NO -> Start (big loop) --></g><!-- LAYER: text --><g
     inkscape:groupmode="layer"
     inkscape:label="3-text"
     id="layer3"><text
       x="163.92552"
       y="216.97659"
       text-anchor="middle"
       class="label"
       id="text8"
       style="font-style:normal;font-variant:normal;font-weight:normal;font-stretch:normal;font-size:29.3333px;font-family:'Latin Modern Roman', 'Times New Roman', serif;-inkscape-font-specification:'Latin Modern Roman, Times New Roman, serif, Normal';font-variant-ligatures:normal;font-variant-caps:normal;font-variant-numeric:normal;font-variant-east-asian:normal;text-anchor:middle;stroke-width:0.674698"
       transform="scale(0.95165172,1.0508046)"><tspan
         sodipodi:role="line"
         id="tspan8"
         x="163.92552"
         y="216.97659"
         style="font-style:normal;font-variant:normal;font-weight:normal;font-stretch:normal;font-size:29.3333px;font-family:'Latin Modern Roman', 'Times New Roman', serif;-inkscape-font-specification:'Latin Modern Roman, Times New Roman, serif, Normal';font-variant-ligatures:normal;font-variant-caps:normal;font-variant-numeric:normal;font-variant-east-asian:normal;stroke-width:0.674698">New noisy state</tspan></text><text
       x="966.02063"
       y="484.76978"
       text-anchor="middle"
       class="label"
       id="text12"
       style="font-style:normal;font-variant:normal;font-weight:normal;font-stretch:normal;font-size:10.2597px;font-family:Sans;-inkscape-font-specification:'Sans, Normal';font-variant-ligatures:normal;font-variant-caps:normal;font-variant-numeric:normal;font-variant-east-asian:normal;text-anchor:middle;stroke-width:0.854973"
       transform="scale(0.86954663,1.1500246)"><tspan
         sodipodi:role="line"
         id="tspan33"
         x="966.02063"
         y="484.76978" /></text><!-- Branch labels --><text
       x="989.02112"
       y="333.90591"
       text-anchor="middle"
       class="label small"
       id="text15"
       transform="scale(0.86954662,1.1500246)"
       style="stroke-width:0.854973">Yes</text><text
       x="988.99866"
       y="114.93935"
       text-anchor="middle"
       class="label small"
       id="text16"
       transform="scale(0.86954662,1.1500246)"
       style="stroke-width:0.854973">No</text><text
       xml:space="preserve"
       style="font-style:normal;font-variant:normal;font-weight:normal;font-stretch:normal;font-size:20px;font-family:'Latin Modern Roman', 'Times New Roman', serif;-inkscape-font-specification:'Latin Modern Roman, Times New Roman, serif, Normal';font-variant-ligatures:normal;font-variant-caps:normal;font-variant-numeric:normal;font-variant-east-asian:normal;text-align:start;writing-mode:lr-tb;direction:ltr;text-anchor:start;fill:#ff0000"
       x="372"
       y="492"
       id="text20"><tspan
         sodipodi:role="line"
         id="tspan20"
         x="372"
         y="492" /></text><text
       xml:space="preserve"
       style="font-size:12px;font-family:Sans;-inkscape-font-specification:'Sans, Normal';text-align:start;writing-mode:lr-tb;direction:ltr;text-anchor:start;fill:#5858ff;fill-opacity:0.541082;stroke:#f70b0b;stroke-width:1.096"
       x="1143.7529"
       y="188.08594"
       id="text2"><tspan
         sodipodi:role="line"
         id="tspan2"
         x="1143.7529"
         y="188.08594" /><tspan
         sodipodi:role="line"
         id="tspan3"
         x="1143.7529"
         y="203.08594" /></text><text
       x="573.14539"
       y="226.12065"
       text-anchor="middle"
       class="label"
       id="text8-1"
       style="font-style:normal;font-variant:normal;font-weight:normal;font-stretch:normal;font-size:29.3333px;font-family:'Latin Modern Roman', 'Times New Roman', serif;-inkscape-font-specification:'Latin Modern Roman, Times New Roman, serif, Normal';font-variant-ligatures:normal;font-variant-caps:normal;font-variant-numeric:normal;font-variant-east-asian:normal;text-anchor:middle;stroke-width:0.717505"
       transform="scale(0.94216936,1.0613803)"><tspan
         sodipodi:role="line"
         id="tspan22"
         x="573.14539"
         y="226.12065">Insert into</tspan><tspan
         sodipodi:role="line"
         id="tspan23"
         x="573.14539"
         y="262.78726">memory stack</tspan></text><g
       id="g30"
       transform="translate(-4,4)"><text
         x="861.43311"
         y="210.62575"
         text-anchor="middle"
         class="label"
         id="text8-8"
         style="font-style:normal;font-variant:normal;font-weight:normal;font-stretch:normal;font-size:20.8238px;font-family:'Latin Modern Roman', 'Times New Roman', serif;-inkscape-font-specification:'Latin Modern Roman, Times New Roman, serif, Normal';font-variant-ligatures:normal;font-variant-caps:normal;font-variant-numeric:normal;font-variant-east-asian:normal;text-anchor:middle;stroke-width:0.417275"
         transform="scale(0.97511922,1.0255156)"><tspan
           sodipodi:role="line"
           id="tspan27"
           x="861.43311"
           y="210.62575">Another state</tspan><tspan
           sodipodi:role="line"
           id="tspan28"
           x="861.43311"
           y="236.6555">with same</tspan><tspan
           sodipodi:role="line"
           id="tspan29"
           x="861.43311"
           y="262.68524">index</tspan><tspan
           sodipodi:role="line"
           id="tspan30"
           x="861.43311"
           y="288.715">   ?</tspan></text><use
         x="230.67"
         xlink:href="#g0-96"
         y="92.154404"
         id="use1-8"
         transform="matrix(2.9897326,0,0,2.0676656,128.52913,106.82412)" /></g><g
       id="page1-9"
       transform="matrix(2.8533994,0,0,3.1377858,-505.78267,-14.915662)"><use
         x="212.056"
         xlink:href="#g1-26-8"
         y="92.154404"
         id="use1-0" /><use
         x="218.071"
         xlink:href="#g2-40-7"
         y="87.218201"
         id="use2-1" /><use
         x="221.35201"
         xlink:href="#g0-96-1"
         y="87.218201"
         id="use3-6" /><use
         x="224.798"
         xlink:href="#g2-61-8"
         y="87.218201"
         id="use4-3" /><use
         x="231.36"
         xlink:href="#g2-48-3"
         y="87.218201"
         id="use5-7" /><use
         x="235.57899"
         xlink:href="#g2-41-2"
         y="87.218201"
         id="use6-4" /><use
         x="239.436"
         xlink:href="#g3-40-1"
         y="92.154404"
         id="use7-8" /><use
         x="243.97099"
         xlink:href="#g1-14-3"
         y="92.154404"
         id="use8-9" /><use
         x="249.584"
         xlink:href="#g3-41-9"
         y="92.154404"
         id="use9-5" /></g><g
       id="page1"
       transform="matrix(2.0978112,0,0,2.2782139,10.035463,221.30495)"><use
         x="219.254"
         xlink:href="#g0-97"
         y="92.154404"
         id="use1" /><use
         x="228.696"
         xlink:href="#g1-61"
         y="92.154404"
         id="use2" /><use
         x="241.088"
         xlink:href="#g1-48"
         y="92.154404"
         id="use3" /></g><g
       id="g40"
       transform="translate(-3.2980347,-114.71183)"><path
         style="fill:#aa0000;fill-opacity:1;stroke:none;stroke-width:0.581333;stroke-dasharray:none;stroke-dashoffset:0;stroke-opacity:1"
         d="m 832.08651,768 h 36.71436"
         id="path27" /><path
         style="fill:#000000;stroke:#000000;stroke-width:0.709006;stroke-dasharray:none;stroke-opacity:1"
         d="M 725.69822,691.19686 H 948"
         id="path2" /><path
         style="fill:#000000;stroke:#000000;stroke-width:0.709006;stroke-dasharray:none;stroke-opacity:1"
         d="M 725.69822,720 H 948"
         id="path2-7" /><path
         style="fill:#000000;stroke:#000000;stroke-width:0.709006;stroke-dasharray:none;stroke-opacity:1"
         d="M 725.69822,749.12427 H 948"
         id="path2-1" /><ellipse
         style="fill:#000000;stroke:#000000;stroke-width:0.540306"
         id="path3"
         cx="760.79852"
         cy="691.62494"
         rx="4.7710977"
         ry="3.6081743" /><ellipse
         style="fill:#000000;stroke:#000000;stroke-width:0.540306"
         id="path3-1"
         cx="831.29803"
         cy="720.32001"
         rx="4.7710977"
         ry="3.6081743" /><ellipse
         style="fill:#000000;stroke:#000000;stroke-width:0.540306"
         id="path3-5"
         cx="831.29803"
         cy="749.44434"
         rx="4.7710977"
         ry="3.6081743" /><ellipse
         style="fill:#000000;stroke:#000000;stroke-width:0.540306"
         id="path3-9"
         cx="901.19965"
         cy="691.83691"
         rx="4.7710977"
         ry="3.6081743" /><path
         style="fill:#000000;stroke:#000000;stroke-width:0.729633"
         d="m 760.7985,691.51799 v 32.19823"
         id="path4" /><path
         style="fill:#000000;stroke:#000000;stroke-width:0.729633"
         d="m 901.19962,691.51799 v 32.19823"
         id="path5" /><path
         style="fill:#000000;stroke:#000000;stroke-width:0.710758"
         d="m 830.99906,688.01677 v 61.1075"
         id="path6" /><ellipse
         style="fill:none;stroke:#000000;stroke-width:0.540306"
         id="path3-0"
         cx="830.99908"
         cy="691.62494"
         rx="4.7710977"
         ry="3.6081743" /><ellipse
         style="fill:none;stroke:#000000;stroke-width:0.540306"
         id="path3-4"
         cx="760.79852"
         cy="720.10803"
         rx="4.7710977"
         ry="3.6081743" /><ellipse
         style="fill:none;stroke:#000000;stroke-width:0.540306"
         id="path3-40"
         cx="901.19965"
         cy="720.10803"
         rx="4.7710977"
         ry="3.6081743" /><rect
         style="fill:#ffffff;stroke:#000000;stroke-width:0.523664"
         id="rect6"
         width="17.965595"
         height="14.40157"
         x="752.19299"
         y="741.76349"
         ry="0.46795294" /><path
         d="m 765.69875,746.01066 c 0.14153,-0.39576 0.17298,-0.51216 1.28954,-0.51216 0.2831,0 0.44029,0 0.44029,-0.20951 0,-0.12804 -0.14154,-0.12804 -0.23586,-0.12804 -0.28306,0 -0.6133,0.0233 -0.9121,0.0233 h -1.85569 c -0.2988,0 -0.62906,-0.0233 -0.92786,-0.0233 -0.11007,0 -0.2988,0 -0.2988,0.22115 0,0.1164 0.11009,0.1164 0.40889,0.1164 0.94357,0 0.94357,0.0931 0.94357,0.22116 0,0.0233 0,0.0931 -0.0629,0.26772 l -0.95931,2.81685 h -4.74931 l 0.94357,-2.79357 c 0.14154,-0.39576 0.17299,-0.51216 1.28956,-0.51216 0.28307,0 0.44033,0 0.44033,-0.20951 0,-0.12804 -0.14154,-0.12804 -0.2359,-0.12804 -0.28307,0 -0.61332,0.0233 -0.91212,0.0233 h -1.8557 c -0.29878,0 -0.62903,-0.0233 -0.92784,-0.0233 -0.11008,0 -0.2988,0 -0.2988,0.22115 0,0.1164 0.11009,0.1164 0.40888,0.1164 0.94357,0 0.94357,0.0931 0.94357,0.22116 0,0.0233 0,0.0931 -0.0629,0.26772 l -2.12303,6.26227 c -0.14154,0.40739 -0.17299,0.52379 -1.2581,0.52379 -0.36171,0 -0.47179,0 -0.47179,0.22116 0,0.1164 0.17299,0.1164 0.22017,0.1164 0.28307,0 0.61332,-0.0233 0.91212,-0.0233 h 1.85569 c 0.2988,0 0.62905,0.0233 0.92784,0.0233 0.12582,0 0.2988,0 0.2988,-0.22116 0,-0.1164 -0.14152,-0.1164 -0.37742,-0.1164 -0.95931,0 -0.95931,-0.0931 -0.95931,-0.20952 0,-0.0116 0,-0.0931 0.0314,-0.18623 l 1.0851,-3.2359 h 4.76506 c -0.26736,0.76824 -1.0694,3.20098 -1.10085,3.27081 -0.17298,0.3492 -0.4246,0.3492 -1.35245,0.36084 -0.18871,0 -0.33025,0 -0.33025,0.22116 0,0.1164 0.17299,0.1164 0.22017,0.1164 0.28307,0 0.61333,-0.0233 0.91211,-0.0233 h 1.8557 c 0.2988,0 0.62905,0.0233 0.92785,0.0233 0.12581,0 0.2988,0 0.2988,-0.22116 0,-0.1164 -0.14154,-0.1164 -0.37744,-0.1164 -0.95929,0 -0.95929,-0.0931 -0.95929,-0.20952 0,-0.0116 0,-0.0931 0.0314,-0.18623 z"
         id="use1-6"
         style="stroke-width:1.1317" /><g
         id="g33"
         transform="matrix(0.19500156,0,0,0.16001745,702.29803,662.71485)"><rect
           style="fill:#ffffff;stroke:#000000;stroke-width:2.96449"
           id="rect6-2"
           width="92.130524"
           height="90"
           x="975.86945"
           y="494"
           ry="2.9243867" /><path
           d="m 1045.1293,520.54205 c 0.7257,-2.47323 0.887,-3.20064 6.613,-3.20064 1.4517,0 2.2578,0 2.2578,-1.30933 0,-0.80017 -0.7258,-0.80017 -1.2095,-0.80017 -1.4516,0 -3.1451,0.14548 -4.6774,0.14548 h -9.5163 c -1.5323,0 -3.2259,-0.14548 -4.7582,-0.14548 -0.5645,0 -1.5323,0 -1.5323,1.3821 0,0.7274 0.5646,0.7274 2.0969,0.7274 4.8388,0 4.8388,0.58192 4.8388,1.3821 0,0.14548 0,0.58192 -0.3226,1.67306 L 1034,538 h -24.3553 l 4.8388,-17.45795 c 0.7259,-2.47323 0.8871,-3.20064 6.6131,-3.20064 1.4516,0 2.2581,0 2.2581,-1.30933 0,-0.80017 -0.7259,-0.80017 -1.2098,-0.80017 -1.4516,0 -3.1452,0.14548 -4.6775,0.14548 h -9.5163 c -1.5322,0 -3.2258,-0.14548 -4.7581,-0.14548 -0.5645,0 -1.5323,0 -1.5323,1.3821 0,0.7274 0.5646,0.7274 2.0968,0.7274 4.8388,0 4.8388,0.58192 4.8388,1.3821 0,0.14548 0,0.58192 -0.3226,1.67306 l -10.88723,39.13489 c -0.72584,2.54595 -0.88713,3.27336 -6.45175,3.27336 -1.85488,0 -2.4194,0 -2.4194,1.38209 0,0.72742 0.88711,0.72742 1.12905,0.72742 1.45164,0 3.14521,-0.14548 4.6775,-0.14548 h 9.51633 c 1.5323,0 3.2259,0.14548 4.7581,0.14548 0.6452,0 1.5323,0 1.5323,-1.38209 0,-0.72742 -0.7258,-0.72742 -1.9355,-0.72742 -4.9195,0 -4.9195,-0.58192 -4.9195,-1.30934 0,-0.0727 0,-0.58193 0.1613,-1.16387 l 5.5647,-20.22211 h 24.4359 c -1.371,4.80093 -5.484,20.00389 -5.6453,20.44034 -0.8871,2.18224 -2.1774,2.18224 -6.9356,2.25498 -0.9677,0 -1.6936,0 -1.6936,1.38209 0,0.72742 0.8872,0.72742 1.1291,0.72742 1.4516,0 3.1452,-0.14548 4.6775,-0.14548 h 9.5163 c 1.5323,0 3.2259,0.14548 4.7582,0.14548 0.6451,0 1.5322,0 1.5322,-1.38209 0,-0.72742 -0.7258,-0.72742 -1.9355,-0.72742 -4.9194,0 -4.9194,-0.58192 -4.9194,-1.30934 0,-0.0727 0,-0.58193 0.1613,-1.16387 z"
           id="use1-6-1"
           style="stroke-width:6.40661" /></g></g><g
       id="page1-48"
       transform="matrix(3.976198,0,0,3.3718484,-383.36798,324.03236)"><use
         x="226.06799"
         xlink:href="#g0-106"
         y="92.154404"
         id="use1-5" /><use
         x="229.377"
         xlink:href="#g1-97"
         y="92.154404"
         id="use2-0" /><use
         x="235.49899"
         xlink:href="#g0-105-2"
         y="92.154404"
         id="use3-8" /></g><text
       x="571.63776"
       y="525.31177"
       text-anchor="middle"
       class="label"
       id="text8-5"
       style="font-style:normal;font-variant:normal;font-weight:normal;font-stretch:normal;font-size:29.3333px;font-family:'Latin Modern Roman', 'Times New Roman', serif;-inkscape-font-specification:'Latin Modern Roman, Times New Roman, serif, Normal';font-variant-ligatures:normal;font-variant-caps:normal;font-variant-numeric:normal;font-variant-east-asian:normal;text-anchor:middle;stroke-width:0.674698"
       transform="scale(0.95165172,1.0508046)"><tspan
         sodipodi:role="line"
         id="tspan37"
         x="571.63776"
         y="525.31177">Measure</tspan><tspan
         sodipodi:role="line"
         id="tspan38"
         x="571.63776"
         y="561.97839">ancilla</tspan></text></g><!-- LAYER: note --><g
     inkscape:groupmode="layer"
     inkscape:label="4-note"
     id="layer4" /></svg>
